<svg width="15" height="15" viewBox="0 0 15 15" fill="none" xmlns="http://www.w3.org/2000/svg">
<path fill-rule="evenodd" clip-rule="evenodd" d="M1.95595 0.5C1.54339 0.5 1.14773 0.663888 0.856002 0.955612C0.564279 1.24733 0.400391 1.643 0.400391 2.05556V12.9444C0.400391 13.357 0.564279 13.7527 0.856002 14.0444C1.14773 14.3361 1.54339 14.5 1.95595 14.5H12.8448C13.2574 14.5 13.6531 14.3361 13.9448 14.0444C14.2365 13.7527 14.4004 13.357 14.4004 12.9444V2.05556C14.4004 1.643 14.2365 1.24733 13.9448 0.955612C13.6531 0.663888 13.2574 0.5 12.8448 0.5H1.95595ZM1.95595 2.05556H12.8448V12.9444H1.95595V2.05556ZM11.2504 5.785C11.3247 5.71325 11.3839 5.62743 11.4247 5.53254C11.4655 5.43764 11.4869 5.33559 11.4878 5.23231C11.4887 5.12904 11.469 5.02662 11.4299 4.93104C11.3908 4.83545 11.3331 4.74861 11.26 4.67558C11.187 4.60255 11.1002 4.5448 11.0046 4.50569C10.909 4.46659 10.8066 4.44691 10.7033 4.44781C10.6 4.4487 10.498 4.47016 10.4031 4.51092C10.3082 4.55168 10.2224 4.61094 10.1506 4.68522L6.30061 8.53522L4.65095 6.88556C4.57873 6.81329 4.493 6.75596 4.39863 6.71683C4.30426 6.6777 4.2031 6.65755 4.10094 6.65751C3.89462 6.65744 3.69672 6.73933 3.55078 6.88517C3.40484 7.03101 3.32281 7.22885 3.32273 7.43517C3.32266 7.64149 3.40455 7.83939 3.55039 7.98533L5.6955 10.1304C5.77495 10.2099 5.86929 10.273 5.97311 10.316C6.07694 10.359 6.18823 10.3812 6.30061 10.3812C6.413 10.3812 6.52429 10.359 6.62811 10.316C6.73194 10.273 6.82627 10.2099 6.90572 10.1304L11.2504 5.785Z" fill="#000429"/>
</svg>
