<svg width="20" height="15" viewBox="0 0 20 15" fill="none" xmlns="http://www.w3.org/2000/svg">
<path d="M10.147 10.045C11.5528 10.045 12.6925 8.90537 12.6925 7.49956C12.6925 6.09374 11.5528 4.9541 10.147 4.9541C8.7412 4.9541 7.60156 6.09374 7.60156 7.49956C7.60156 8.90537 8.7412 10.045 10.147 10.045Z" fill="white"/>
<path d="M19.6546 7.28364C18.9061 5.34759 17.6067 3.6733 15.917 2.46769C14.2272 1.26208 12.2213 0.578001 10.147 0.5C8.07274 0.578001 6.06678 1.26208 4.37707 2.46769C2.68736 3.6733 1.38796 5.34759 0.639475 7.28364C0.588925 7.42345 0.588925 7.57655 0.639475 7.71636C1.38796 9.65241 2.68736 11.3267 4.37707 12.5323C6.06678 13.7379 8.07274 14.422 10.147 14.5C12.2213 14.422 14.2272 13.7379 15.917 12.5323C17.6067 11.3267 18.9061 9.65241 19.6546 7.71636C19.7051 7.57655 19.7051 7.42345 19.6546 7.28364ZM10.147 11.6364C9.3289 11.6364 8.52915 11.3938 7.84891 10.9393C7.16867 10.4848 6.63849 9.83874 6.32541 9.08292C6.01233 8.3271 5.93041 7.49541 6.09002 6.69304C6.24962 5.89066 6.64359 5.15363 7.22208 4.57515C7.80058 3.99667 8.53763 3.60272 9.34003 3.44312C10.1424 3.28351 10.9741 3.36543 11.73 3.6785C12.4858 3.99157 13.1319 4.52174 13.5864 5.20196C14.0409 5.88218 14.2835 6.6819 14.2835 7.5C14.2818 8.59651 13.8455 9.64764 13.0701 10.423C12.2947 11.1983 11.2436 11.6347 10.147 11.6364Z" fill="white"/>
</svg>
