<svg width="30" height="30" viewBox="0 0 30 30" fill="none" xmlns="http://www.w3.org/2000/svg">
<g clip-path="url(#clip0_1942_2646)">
<path d="M18.1006 3.0097C17.9555 2.38329 17.5937 1.82829 17.0792 1.44263C16.5647 1.05697 15.9305 0.865439 15.2885 0.901838C14.6465 0.938236 14.038 1.20022 13.5704 1.64157C13.1028 2.08291 12.8061 2.67525 12.7327 3.31405C12.6592 3.95285 12.8138 4.59705 13.1691 5.13299C13.5244 5.66893 14.0575 6.06215 14.6745 6.24326C15.2915 6.42437 15.9526 6.38174 16.5412 6.12288C17.1298 5.86402 17.6081 5.40558 17.8916 4.82845C19.6175 5.22146 21.2218 6.02841 22.5663 7.17969C23.9108 8.33098 24.9551 9.79205 25.6091 11.4369L27.2731 10.7825C26.5028 8.83157 25.2624 7.10117 23.6622 5.74513C22.062 4.3891 20.1515 3.44944 18.1006 3.0097ZM15.455 4.54532C15.3332 4.54923 15.2118 4.52862 15.0981 4.4847C14.9845 4.44079 14.8807 4.37447 14.7932 4.28968C14.7056 4.20489 14.636 4.10337 14.5885 3.99115C14.5409 3.87893 14.5164 3.75829 14.5164 3.63641C14.5164 3.51454 14.5409 3.3939 14.5885 3.28168C14.636 3.16946 14.7056 3.06793 14.7932 2.98315C14.8807 2.89836 14.9845 2.83204 15.0981 2.78813C15.2118 2.74421 15.3332 2.7236 15.455 2.72751C15.6962 2.72751 15.9275 2.82332 16.098 2.99386C16.2686 3.1644 16.3644 3.3957 16.3644 3.63688C16.3644 3.87806 16.2686 4.10937 16.098 4.27991C15.9275 4.45045 15.6962 4.54532 15.455 4.54532ZM11.4547 5.30095L10.7825 3.63782C8.83157 4.40812 7.10117 5.64851 5.74513 7.24874C4.3891 8.84896 3.44944 10.7594 3.0097 12.8103C2.38329 12.9555 1.82829 13.3172 1.44263 13.8318C1.05697 14.3463 0.865439 14.9805 0.901838 15.6224C0.938236 16.2644 1.20022 16.8729 1.64157 17.3405C2.08291 17.8082 2.67525 18.1049 3.31405 18.1783C3.95285 18.2517 4.59705 18.0972 5.13299 17.7419C5.66893 17.3866 6.06215 16.8534 6.24326 16.2364C6.42437 15.6195 6.38174 14.9583 6.12288 14.3697C5.86402 13.7811 5.40558 13.3029 4.82845 13.0194C5.22307 11.2914 6.03265 9.68565 7.18718 8.34082C8.34171 6.996 9.80643 5.95263 11.4547 5.30095ZM3.63595 16.3653C3.51653 16.3653 3.39827 16.3418 3.28794 16.2961C3.17761 16.2504 3.07736 16.1834 2.99292 16.099C2.90848 16.0145 2.84149 15.9143 2.79579 15.8039C2.75009 15.6936 2.72657 15.5754 2.72657 15.4559C2.72657 15.3365 2.75009 15.2183 2.79579 15.1079C2.84149 14.9976 2.90848 14.8974 2.99292 14.8129C3.07736 14.7285 3.17761 14.6615 3.28794 14.6158C3.39827 14.5701 3.51653 14.5466 3.63595 14.5466C3.87713 14.5466 4.10843 14.6424 4.27897 14.8129C4.44951 14.9835 4.54532 15.2148 4.54532 15.4559C4.54532 15.6971 4.44951 15.9284 4.27897 16.099C4.10843 16.2695 3.87713 16.3653 3.63595 16.3653ZM15.455 24.5469C14.9478 24.5485 14.4512 24.6915 14.0208 24.9598C13.5904 25.2281 13.2433 25.611 13.0184 26.0656C11.2923 25.6727 9.68765 24.8656 8.34297 23.7142C6.99829 22.5627 5.95393 21.1014 5.30001 19.4563L3.63688 20.1284C4.40969 22.0827 5.65424 23.8152 7.25948 25.1715C8.86472 26.5278 10.7807 27.4656 12.8366 27.9013C12.9547 28.4018 13.2118 28.8587 13.5784 29.2194C13.9449 29.58 14.406 29.8298 14.9083 29.9398C15.4106 30.0497 15.9338 30.0155 16.4176 29.841C16.9013 29.6665 17.3259 29.3588 17.6423 28.9534C17.9587 28.5481 18.1541 28.0615 18.206 27.5499C18.2579 27.0383 18.1641 26.5224 17.9354 26.0618C17.7068 25.6012 17.3526 25.2146 16.9138 24.9465C16.4749 24.6785 15.9692 24.5399 15.455 24.5469ZM15.455 28.1834C15.2138 28.1834 14.9825 28.0876 14.812 27.9171C14.6414 27.7466 14.5456 27.5152 14.5456 27.2741C14.5456 27.0329 14.6414 26.8016 14.812 26.631C14.9825 26.4605 15.2138 26.3647 15.455 26.3647C15.6962 26.3647 15.9275 26.4605 16.098 26.631C16.2686 26.8016 16.3644 27.0329 16.3644 27.2741C16.3644 27.5152 16.2686 27.7466 16.098 27.9171C15.9275 28.0876 15.6962 28.1834 15.455 28.1834ZM30.0003 15.455C30.002 14.9682 29.8734 14.4899 29.6279 14.0696C29.3823 13.6493 29.0288 13.3023 28.604 13.0647C28.1792 12.8271 27.6985 12.7075 27.2118 12.7182C26.7252 12.729 26.2503 12.8698 25.8364 13.126C25.4225 13.3822 25.0847 13.7444 24.858 14.1752C24.6313 14.6059 24.524 15.0895 24.5472 15.5757C24.5704 16.0619 24.7232 16.5331 24.9899 16.9403C25.2566 17.3475 25.6274 17.676 26.0638 17.8916C25.6707 19.6176 24.8636 21.222 23.7121 22.5665C22.5607 23.911 21.0994 24.9552 19.4544 25.6091L20.1275 27.2731C22.0817 26.5003 23.8143 25.2558 25.1706 23.6505C26.5268 22.0453 27.4646 20.1293 27.9003 18.0734C28.4921 17.9335 29.0202 17.5998 29.4007 17.1254C29.7811 16.651 29.9922 16.0631 30.0003 15.455ZM27.2722 16.3644C27.031 16.3644 26.7997 16.2686 26.6292 16.098C26.4586 15.9275 26.3628 15.6962 26.3628 15.455C26.3628 15.2138 26.4586 14.9825 26.6292 14.812C26.7997 14.6414 27.031 14.5456 27.2722 14.5456C27.5134 14.5456 27.7447 14.6414 27.9152 14.812C28.0858 14.9825 28.1816 15.2138 28.1816 15.455C28.1816 15.6962 28.0858 15.9275 27.9152 16.098C27.7447 16.2686 27.5134 16.3644 27.2722 16.3644Z" fill="black"/>
<path d="M17.9911 15.3283C18.5083 14.8232 18.8633 14.1755 19.0106 13.4677C19.158 12.7599 19.0911 12.0243 18.8184 11.3548C18.5457 10.6852 18.0797 10.1122 17.4798 9.70874C16.8799 9.30532 16.1734 9.08984 15.4504 9.08984C14.7275 9.08984 14.021 9.30532 13.4211 9.70874C12.8212 10.1122 12.3551 10.6852 12.0825 11.3548C11.8098 12.0243 11.7429 12.7599 11.8902 13.4677C12.0376 14.1755 12.3926 14.8232 12.9098 15.3283C12.2943 15.7444 11.7901 16.3049 11.4413 16.9609C11.0925 17.617 10.9098 18.3484 10.9092 19.0914V20.9092H20.0001V19.0905C19.9985 18.3468 19.8146 17.6148 19.4643 16.9587C19.114 16.3026 18.6082 15.7434 17.9911 15.3283ZM13.6364 12.7267C13.6364 12.4879 13.6834 12.2514 13.7748 12.0307C13.8662 11.8101 14.0002 11.6096 14.1691 11.4407C14.338 11.2718 14.5385 11.1378 14.7591 11.0464C14.9798 10.955 15.2163 10.908 15.4551 10.908C15.694 10.908 15.9305 10.955 16.1511 11.0464C16.3718 11.1378 16.5723 11.2718 16.7412 11.4407C16.9101 11.6096 17.044 11.8101 17.1354 12.0307C17.2268 12.2514 17.2739 12.4879 17.2739 12.7267C17.2739 13.2091 17.0822 13.6717 16.7412 14.0128C16.4001 14.3539 15.9375 14.5455 15.4551 14.5455C14.9728 14.5455 14.5101 14.3539 14.1691 14.0128C13.828 13.6717 13.6364 13.2091 13.6364 12.7267ZM12.727 19.0905C12.7203 18.728 12.7859 18.3679 12.9199 18.031C13.054 17.6942 13.2538 17.3875 13.5078 17.1288C13.7617 16.8701 14.0647 16.6646 14.399 16.5243C14.7332 16.384 15.0921 16.3118 15.4546 16.3118C15.8172 16.3118 16.176 16.384 16.5103 16.5243C16.8446 16.6646 17.1476 16.8701 17.4015 17.1288C17.6555 17.3875 17.8553 17.6942 17.9894 18.031C18.1234 18.3679 18.189 18.728 18.1823 19.0905H12.727Z" fill="black"/>
</g>
<defs>
<clipPath id="clip0_1942_2646">
<rect width="30" height="30" fill="white"/>
</clipPath>
</defs>
</svg>
